# xmcd
#
# Track frame offsets:
#	225
#	12678
#	24405
#	39790
#	50339
#	62637
#	83547
#	94145
#	113377
#	127874
#	140023
#	154958
#	168170
#	183930
#
# Disc length: 2621 seconds
# Revision: 0
# Processed by: cddbd v1.5.2PL0 Copyright (c) Steve Scherf et al.
# Submitted via: dBpowerAMP V12.0
#
DISCID=a40a3a0e
DTITLE=The Dick Smith and Michael O'Reilly Band - The Dick Smith and Michael O'Reilly Band
DYEAR=1900
DGENRE=Bluegrass
TTITLE0=Ebenezer Jones
TTITLE1=Make Up Your Mind
TTITLE2=The Fifth Line
TTITLE3=Baby Girl
TTITLE4=Blow Wind Blow
TTITLE5=The Eternal Soldier
TTITLE6=Life Without Parole
TTITLE7=The Cruel Mother
TTITLE8=Please Stop Falling
TTITLE9=Little White Lies
TTITLE10=Lily Hoskins
TTITLE11=She Brought Him Flowers
TTITLE12=Henry Walker
TTITLE13=The Black Ship
EXTD=
EXTT0=
EXTT1=
EXTT2=
EXTT3=
EXTT4=
EXTT5=
EXTT6=
EXTT7=
EXTT8=
EXTT9=
EXTT10=
EXTT11=
EXTT12=
EXTT13=
PLAYORDER=
